<svg width="108" height="87" viewBox="0 0 108 87" fill="none" xmlns="http://www.w3.org/2000/svg">
<path fill-rule="evenodd" clip-rule="evenodd" d="M1.37289 65.7629C0.882623 70.5721 0.355391 75.3253 0.00553964 80.1462C-0.0734991 81.1831 0.699206 82.0795 1.72961 82.1548C2.76651 82.2339 3.66681 81.4547 3.7421 80.4243C4.09369 75.6304 4.61515 70.9172 5.10341 66.1415C5.20569 65.1094 4.45446 64.1905 3.43257 64.0855C2.40042 63.9832 1.47517 64.7308 1.37289 65.7629Z" fill="#7B2CBF"/>
<path fill-rule="evenodd" clip-rule="evenodd" d="M37.8567 49.4157C46.6638 61.8963 56.0962 73.9241 65.1637 86.2087C65.7823 87.0422 66.9547 87.2167 67.7844 86.6046C68.6179 85.9859 68.7988 84.8175 68.1839 83.9775C59.1284 71.7172 49.708 59.7138 40.9231 47.2547C40.3222 46.4055 39.1547 46.2075 38.3093 46.8019C37.46 47.4028 37.2623 48.5702 37.8567 49.4157Z" fill="#7B2CBF"/>
<path fill-rule="evenodd" clip-rule="evenodd" d="M68.4514 3.62497C80.5169 8.22678 92.73 12.4981 104.744 17.2346C105.706 17.6082 106.793 17.1358 107.173 16.1775C107.557 15.2126 107.078 14.1222 106.119 13.7421C94.0888 9.00465 81.8627 4.72584 69.7804 0.123026C68.8145 -0.244079 67.7305 0.238443 67.3634 1.20429C66.9925 2.17662 67.479 3.25412 68.4514 3.62497Z" fill="#7B2CBF"/>
</svg>
